<svg xmlns="http://www.w3.org/2000/svg" xmlns:xlink="http://www.w3.org/1999/xlink" width="500" zoomAndPan="magnify" viewBox="0 0 375 374.999991" height="500" preserveAspectRatio="xMidYMid meet" version="1.0"><defs><g/><clipPath id="908fde0e94"><path d="M 0.00390625 0.160156 L 374.996094 0.160156 L 374.996094 374.832031 L 0.00390625 374.832031 Z M 0.00390625 0.160156 " clip-rule="nonzero"/></clipPath></defs><g clip-path="url(#908fde0e94)"><path stroke-linecap="butt" transform="matrix(0.75, 0, 0, 0.75, 0.00533163, 0.158732)" fill="none" stroke-linejoin="miter" d="M -0.0019005 0.00189903 L 499.987716 0.00189903 L 499.987716 499.564432 L -0.0019005 499.564432 Z M -0.0019005 0.00189903 " stroke="#000000" stroke-width="8" stroke-opacity="1" stroke-miterlimit="4"/></g><g fill="#000000" fill-opacity="1"><g transform="translate(18.441016, 64.947582)"><g><path d="M 15.796875 0.546875 C 13.035156 0.546875 10.585938 -0.0546875 8.453125 -1.265625 C 6.328125 -2.472656 4.664062 -4.144531 3.46875 -6.28125 C 2.269531 -8.414062 1.671875 -10.875 1.671875 -13.65625 C 1.671875 -16.4375 2.269531 -18.890625 3.46875 -21.015625 C 4.664062 -23.148438 6.320312 -24.820312 8.4375 -26.03125 C 10.5625 -27.238281 13 -27.84375 15.75 -27.84375 C 18.070312 -27.84375 20.191406 -27.398438 22.109375 -26.515625 C 24.035156 -25.628906 25.65625 -24.378906 26.96875 -22.765625 C 28.28125 -21.160156 29.195312 -19.265625 29.71875 -17.078125 L 23.328125 -17.078125 C 22.804688 -18.585938 21.878906 -19.773438 20.546875 -20.640625 C 19.222656 -21.515625 17.691406 -21.953125 15.953125 -21.953125 C 14.421875 -21.953125 13.046875 -21.597656 11.828125 -20.890625 C 10.617188 -20.191406 9.675781 -19.21875 9 -17.96875 C 8.332031 -16.726562 8 -15.289062 8 -13.65625 C 8 -12.007812 8.332031 -10.5625 9 -9.3125 C 9.675781 -8.070312 10.613281 -7.097656 11.8125 -6.390625 C 13.007812 -5.691406 14.375 -5.34375 15.90625 -5.34375 C 17.707031 -5.34375 19.28125 -5.800781 20.625 -6.71875 C 21.976562 -7.644531 22.941406 -8.890625 23.515625 -10.453125 L 29.90625 -10.453125 C 29.46875 -8.242188 28.582031 -6.3125 27.25 -4.65625 C 25.925781 -3.007812 24.285156 -1.726562 22.328125 -0.8125 C 20.367188 0.09375 18.191406 0.546875 15.796875 0.546875 Z M 15.796875 0.546875 "/></g></g></g><g fill="#000000" fill-opacity="1"><g transform="translate(63.330041, 64.947582)"><g><path d="M 0.34375 0 L 11.1875 -27.296875 L 17.28125 -27.296875 L 28.125 0 L 21.484375 0 L 19.65625 -4.71875 L 8.8125 -4.71875 L 6.984375 0 Z M 10.40625 -9.59375 L 18.09375 -9.59375 L 14.234375 -19.578125 Z M 10.40625 -9.59375 "/></g></g></g><g fill="#000000" fill-opacity="1"><g transform="translate(105.216066, 64.947582)"><g><path d="M 3.28125 0 L 3.28125 -27.296875 L 8.546875 -27.296875 L 18.25 -13.140625 L 27.921875 -27.296875 L 33.15625 -27.296875 L 33.15625 0 L 26.984375 0 L 26.984375 -16.421875 L 20.359375 -6.75 L 16.0625 -6.75 L 9.4375 -16.453125 L 9.4375 0 Z M 3.28125 0 "/></g></g></g><g fill="#000000" fill-opacity="1"><g transform="translate(155.058092, 64.947582)"><g><path d="M 3.28125 0 L 3.28125 -27.296875 L 15.484375 -27.296875 C 18.265625 -27.296875 20.472656 -26.632812 22.109375 -25.3125 C 23.742188 -23.988281 24.5625 -22.207031 24.5625 -19.96875 C 24.5625 -18.695312 24.273438 -17.539062 23.703125 -16.5 C 23.140625 -15.457031 22.335938 -14.640625 21.296875 -14.046875 C 22.597656 -13.472656 23.601562 -12.625 24.3125 -11.5 C 25.03125 -10.382812 25.390625 -9.097656 25.390625 -7.640625 C 25.390625 -6.109375 25 -4.769531 24.21875 -3.625 C 23.4375 -2.476562 22.347656 -1.585938 20.953125 -0.953125 C 19.566406 -0.316406 17.953125 0 16.109375 0 Z M 9.40625 -4.90625 L 15.171875 -4.90625 C 16.390625 -4.90625 17.335938 -5.191406 18.015625 -5.765625 C 18.691406 -6.335938 19.03125 -7.144531 19.03125 -8.1875 C 19.03125 -9.226562 18.691406 -10.035156 18.015625 -10.609375 C 17.335938 -11.179688 16.390625 -11.46875 15.171875 -11.46875 L 9.40625 -11.46875 Z M 9.40625 -16.1875 L 14.546875 -16.1875 C 15.742188 -16.1875 16.660156 -16.457031 17.296875 -17 C 17.929688 -17.550781 18.25 -18.320312 18.25 -19.3125 C 18.25 -20.289062 17.929688 -21.046875 17.296875 -21.578125 C 16.660156 -22.117188 15.742188 -22.390625 14.546875 -22.390625 L 9.40625 -22.390625 Z M 9.40625 -16.1875 "/></g></g></g><g fill="#000000" fill-opacity="1"><g transform="translate(195.345115, 64.947582)"><g><path d="M 3.28125 0 L 3.28125 -27.296875 L 14.9375 -27.296875 C 17.019531 -27.296875 18.828125 -26.914062 20.359375 -26.15625 C 21.890625 -25.40625 23.070312 -24.328125 23.90625 -22.921875 C 24.738281 -21.523438 25.15625 -19.851562 25.15625 -17.90625 C 25.15625 -15.894531 24.695312 -14.164062 23.78125 -12.71875 C 22.875 -11.28125 21.601562 -10.203125 19.96875 -9.484375 L 25.625 0 L 18.453125 0 L 13.578125 -8.5 L 9.484375 -8.5 L 9.484375 0 Z M 9.40625 -13.734375 L 14.125 -13.734375 C 15.65625 -13.734375 16.828125 -14.085938 17.640625 -14.796875 C 18.460938 -15.515625 18.875 -16.535156 18.875 -17.859375 C 18.875 -19.179688 18.460938 -20.203125 17.640625 -20.921875 C 16.828125 -21.640625 15.65625 -22 14.125 -22 L 9.40625 -22 Z M 9.40625 -13.734375 "/></g></g></g><g fill="#000000" fill-opacity="1"><g transform="translate(236.217125, 64.947582)"><g><path d="M 3.28125 0 L 3.28125 -27.296875 L 21.21875 -27.296875 L 21.21875 -22.078125 L 9.4375 -22.078125 L 9.4375 -16.421875 L 20.15625 -16.421875 L 20.15625 -11.234375 L 9.4375 -11.234375 L 9.4375 -5.265625 L 21.640625 -5.265625 L 21.640625 0 Z M 3.28125 0 "/></g></g></g><g fill="#000000" fill-opacity="1"><g transform="translate(273.267141, 64.947582)"><g><path d="M 3.28125 0 L 3.28125 -27.296875 L 8.546875 -27.296875 L 20.59375 -10.6875 L 20.59375 -27.296875 L 26.75 -27.296875 L 26.75 0 L 21.484375 0 L 9.4375 -16.734375 L 9.4375 0 Z M 3.28125 0 "/></g></g></g><g fill="#000000" fill-opacity="1"><g transform="translate(316.713168, 64.947582)"><g><path d="M 0.34375 0 L 11.1875 -27.296875 L 17.28125 -27.296875 L 28.125 0 L 21.484375 0 L 19.65625 -4.71875 L 8.8125 -4.71875 L 6.984375 0 Z M 10.40625 -9.59375 L 18.09375 -9.59375 L 14.234375 -19.578125 Z M 10.40625 -9.59375 "/></g></g></g><g fill="#000000" fill-opacity="1"><g transform="translate(18.441016, 118.947579)"><g><path d="M 15.796875 0.546875 C 13.035156 0.546875 10.585938 -0.0546875 8.453125 -1.265625 C 6.328125 -2.472656 4.664062 -4.144531 3.46875 -6.28125 C 2.269531 -8.414062 1.671875 -10.875 1.671875 -13.65625 C 1.671875 -16.4375 2.269531 -18.890625 3.46875 -21.015625 C 4.664062 -23.148438 6.320312 -24.820312 8.4375 -26.03125 C 10.5625 -27.238281 13 -27.84375 15.75 -27.84375 C 18.070312 -27.84375 20.191406 -27.398438 22.109375 -26.515625 C 24.035156 -25.628906 25.65625 -24.378906 26.96875 -22.765625 C 28.28125 -21.160156 29.195312 -19.265625 29.71875 -17.078125 L 23.328125 -17.078125 C 22.804688 -18.585938 21.878906 -19.773438 20.546875 -20.640625 C 19.222656 -21.515625 17.691406 -21.953125 15.953125 -21.953125 C 14.421875 -21.953125 13.046875 -21.597656 11.828125 -20.890625 C 10.617188 -20.191406 9.675781 -19.21875 9 -17.96875 C 8.332031 -16.726562 8 -15.289062 8 -13.65625 C 8 -12.007812 8.332031 -10.5625 9 -9.3125 C 9.675781 -8.070312 10.613281 -7.097656 11.8125 -6.390625 C 13.007812 -5.691406 14.375 -5.34375 15.90625 -5.34375 C 17.707031 -5.34375 19.28125 -5.800781 20.625 -6.71875 C 21.976562 -7.644531 22.941406 -8.890625 23.515625 -10.453125 L 29.90625 -10.453125 C 29.46875 -8.242188 28.582031 -6.3125 27.25 -4.65625 C 25.925781 -3.007812 24.285156 -1.726562 22.328125 -0.8125 C 20.367188 0.09375 18.191406 0.546875 15.796875 0.546875 Z M 15.796875 0.546875 "/></g></g></g><g fill="#000000" fill-opacity="1"><g transform="translate(63.330041, 118.947579)"><g><path d="M 0.34375 0 L 11.1875 -27.296875 L 17.28125 -27.296875 L 28.125 0 L 21.484375 0 L 19.65625 -4.71875 L 8.8125 -4.71875 L 6.984375 0 Z M 10.40625 -9.59375 L 18.09375 -9.59375 L 14.234375 -19.578125 Z M 10.40625 -9.59375 "/></g></g></g><g fill="#000000" fill-opacity="1"><g transform="translate(105.216066, 118.947579)"><g><path d="M 3.28125 0 L 3.28125 -27.296875 L 13.96875 -27.296875 C 16.175781 -27.296875 18.082031 -26.890625 19.6875 -26.078125 C 21.300781 -25.273438 22.554688 -24.132812 23.453125 -22.65625 C 24.347656 -21.175781 24.796875 -19.4375 24.796875 -17.4375 C 24.796875 -15.457031 24.347656 -13.722656 23.453125 -12.234375 C 22.554688 -10.753906 21.300781 -9.613281 19.6875 -8.8125 C 18.082031 -8.007812 16.175781 -7.609375 13.96875 -7.609375 L 9.484375 -7.609375 L 9.484375 0 Z M 9.4375 -12.953125 L 13.453125 -12.953125 C 15.066406 -12.953125 16.304688 -13.332031 17.171875 -14.09375 C 18.046875 -14.863281 18.484375 -15.960938 18.484375 -17.390625 C 18.484375 -18.816406 18.046875 -19.921875 17.171875 -20.703125 C 16.304688 -21.484375 15.066406 -21.875 13.453125 -21.875 L 9.4375 -21.875 Z M 9.4375 -12.953125 "/></g></g></g><g fill="#000000" fill-opacity="1"><g transform="translate(144.567088, 118.947579)"><g><path d="M 3.28125 0 L 3.28125 -27.296875 L 9.484375 -27.296875 L 9.484375 0 Z M 3.28125 0 "/></g></g></g><g fill="#000000" fill-opacity="1"><g transform="translate(170.736097, 118.947579)"><g><path d="M 9.828125 0 L 9.828125 -21.484375 L 1.171875 -21.484375 L 1.171875 -27.296875 L 24.6875 -27.296875 L 24.6875 -21.484375 L 16.03125 -21.484375 L 16.03125 0 Z M 9.828125 0 "/></g></g></g><g fill="#000000" fill-opacity="1"><g transform="translate(210.009116, 118.947579)"><g><path d="M 0.34375 0 L 11.1875 -27.296875 L 17.28125 -27.296875 L 28.125 0 L 21.484375 0 L 19.65625 -4.71875 L 8.8125 -4.71875 L 6.984375 0 Z M 10.40625 -9.59375 L 18.09375 -9.59375 L 14.234375 -19.578125 Z M 10.40625 -9.59375 "/></g></g></g><g fill="#000000" fill-opacity="1"><g transform="translate(251.895142, 118.947579)"><g><path d="M 3.28125 0 L 3.28125 -27.296875 L 9.484375 -27.296875 L 9.484375 -5.8125 L 21.40625 -5.8125 L 21.40625 0 Z M 3.28125 0 "/></g></g></g></svg>