<svg xmlns="http://www.w3.org/2000/svg" xmlns:xlink="http://www.w3.org/1999/xlink" width="500" zoomAndPan="magnify" viewBox="0 0 375 374.999991" height="500" preserveAspectRatio="xMidYMid meet" version="1.0"><defs><g/><clipPath id="301cfbaabf"><path d="M 88.109375 96.484375 L 270.289062 96.484375 L 270.289062 278.511719 L 88.109375 278.511719 Z M 88.109375 96.484375 " clip-rule="nonzero"/></clipPath></defs><g clip-path="url(#301cfbaabf)"><path stroke-linecap="butt" transform="matrix(0.75, 0, 0, 0.75, 88.107532, 96.485391)" fill="none" stroke-linejoin="miter" d="M 0.00245798 -0.00135502 L 242.908724 -0.00135502 L 242.908724 242.701786 L 0.00245798 242.701786 Z M 0.00245798 -0.00135502 " stroke="#000000" stroke-width="4" stroke-opacity="1" stroke-miterlimit="4"/></g><g fill="#000000" fill-opacity="1"><g transform="translate(97.041092, 126.37888)"><g><path d="M 7.296875 0.25 C 6.015625 0.25 4.882812 -0.0234375 3.90625 -0.578125 C 2.925781 -1.140625 2.160156 -1.910156 1.609375 -2.890625 C 1.054688 -3.878906 0.78125 -5.015625 0.78125 -6.296875 C 0.78125 -7.578125 1.054688 -8.707031 1.609375 -9.6875 C 2.160156 -10.675781 2.921875 -11.453125 3.890625 -12.015625 C 4.867188 -12.578125 5.992188 -12.859375 7.265625 -12.859375 C 8.335938 -12.859375 9.316406 -12.648438 10.203125 -12.234375 C 11.085938 -11.828125 11.832031 -11.25 12.4375 -10.5 C 13.050781 -9.757812 13.476562 -8.890625 13.71875 -7.890625 L 10.765625 -7.890625 C 10.523438 -8.578125 10.097656 -9.125 9.484375 -9.53125 C 8.867188 -9.9375 8.160156 -10.140625 7.359375 -10.140625 C 6.648438 -10.140625 6.015625 -9.972656 5.453125 -9.640625 C 4.898438 -9.316406 4.46875 -8.867188 4.15625 -8.296875 C 3.84375 -7.722656 3.6875 -7.054688 3.6875 -6.296875 C 3.6875 -5.546875 3.84375 -4.878906 4.15625 -4.296875 C 4.46875 -3.722656 4.898438 -3.273438 5.453125 -2.953125 C 6.003906 -2.628906 6.632812 -2.46875 7.34375 -2.46875 C 8.175781 -2.46875 8.898438 -2.679688 9.515625 -3.109375 C 10.140625 -3.535156 10.585938 -4.109375 10.859375 -4.828125 L 13.8125 -4.828125 C 13.601562 -3.804688 13.191406 -2.914062 12.578125 -2.15625 C 11.960938 -1.394531 11.203125 -0.800781 10.296875 -0.375 C 9.398438 0.0390625 8.398438 0.25 7.296875 0.25 Z M 7.296875 0.25 "/></g></g></g><g fill="#000000" fill-opacity="1"><g transform="translate(117.760676, 126.37888)"><g><path d="M 0.15625 0 L 5.171875 -12.59375 L 7.96875 -12.59375 L 12.984375 0 L 9.921875 0 L 9.078125 -2.171875 L 4.0625 -2.171875 L 3.21875 0 Z M 4.8125 -4.421875 L 8.359375 -4.421875 L 6.5625 -9.03125 Z M 4.8125 -4.421875 "/></g></g></g><g fill="#000000" fill-opacity="1"><g transform="translate(137.094255, 126.37888)"><g><path d="M 1.515625 0 L 1.515625 -12.59375 L 3.9375 -12.59375 L 8.421875 -6.0625 L 12.890625 -12.59375 L 15.296875 -12.59375 L 15.296875 0 L 12.453125 0 L 12.453125 -7.578125 L 9.390625 -3.109375 L 7.421875 -3.109375 L 4.359375 -7.59375 L 4.359375 0 Z M 1.515625 0 "/></g></g></g><g fill="#000000" fill-opacity="1"><g transform="translate(160.099831, 126.37888)"><g><path d="M 1.515625 0 L 1.515625 -12.59375 L 7.140625 -12.59375 C 8.429688 -12.59375 9.453125 -12.285156 10.203125 -11.671875 C 10.960938 -11.066406 11.34375 -10.25 11.34375 -9.21875 C 11.34375 -8.625 11.207031 -8.085938 10.9375 -7.609375 C 10.675781 -7.128906 10.304688 -6.753906 9.828125 -6.484375 C 10.429688 -6.210938 10.894531 -5.816406 11.21875 -5.296875 C 11.550781 -4.785156 11.71875 -4.195312 11.71875 -3.53125 C 11.71875 -2.820312 11.535156 -2.203125 11.171875 -1.671875 C 10.816406 -1.140625 10.316406 -0.726562 9.671875 -0.4375 C 9.035156 -0.144531 8.289062 0 7.4375 0 Z M 4.34375 -2.265625 L 7 -2.265625 C 7.5625 -2.265625 8 -2.394531 8.3125 -2.65625 C 8.625 -2.925781 8.78125 -3.300781 8.78125 -3.78125 C 8.78125 -4.257812 8.625 -4.628906 8.3125 -4.890625 C 8 -5.160156 7.5625 -5.296875 7 -5.296875 L 4.34375 -5.296875 Z M 4.34375 -7.46875 L 6.71875 -7.46875 C 7.269531 -7.46875 7.691406 -7.59375 7.984375 -7.84375 C 8.273438 -8.09375 8.421875 -8.445312 8.421875 -8.90625 C 8.421875 -9.363281 8.273438 -9.710938 7.984375 -9.953125 C 7.691406 -10.203125 7.269531 -10.328125 6.71875 -10.328125 L 4.34375 -10.328125 Z M 4.34375 -7.46875 "/></g></g></g><g fill="#000000" fill-opacity="1"><g transform="translate(178.695414, 126.37888)"><g><path d="M 1.515625 0 L 1.515625 -12.59375 L 6.890625 -12.59375 C 7.847656 -12.59375 8.679688 -12.421875 9.390625 -12.078125 C 10.097656 -11.734375 10.644531 -11.234375 11.03125 -10.578125 C 11.414062 -9.929688 11.609375 -9.160156 11.609375 -8.265625 C 11.609375 -7.335938 11.394531 -6.539062 10.96875 -5.875 C 10.550781 -5.207031 9.96875 -4.707031 9.21875 -4.375 L 11.828125 0 L 8.515625 0 L 6.265625 -3.921875 L 4.375 -3.921875 L 4.375 0 Z M 4.34375 -6.34375 L 6.515625 -6.34375 C 7.222656 -6.34375 7.765625 -6.503906 8.140625 -6.828125 C 8.523438 -7.160156 8.71875 -7.632812 8.71875 -8.25 C 8.71875 -8.851562 8.523438 -9.320312 8.140625 -9.65625 C 7.765625 -9.988281 7.222656 -10.15625 6.515625 -10.15625 L 4.34375 -10.15625 Z M 4.34375 -6.34375 "/></g></g></g><g fill="#000000" fill-opacity="1"><g transform="translate(197.560998, 126.37888)"><g><path d="M 1.515625 0 L 1.515625 -12.59375 L 9.796875 -12.59375 L 9.796875 -10.1875 L 4.359375 -10.1875 L 4.359375 -7.578125 L 9.3125 -7.578125 L 9.3125 -5.1875 L 4.359375 -5.1875 L 4.359375 -2.4375 L 9.984375 -2.4375 L 9.984375 0 Z M 1.515625 0 "/></g></g></g><g fill="#000000" fill-opacity="1"><g transform="translate(214.66259, 126.37888)"><g><path d="M 1.515625 0 L 1.515625 -12.59375 L 3.9375 -12.59375 L 9.5 -4.9375 L 9.5 -12.59375 L 12.34375 -12.59375 L 12.34375 0 L 9.921875 0 L 4.359375 -7.71875 L 4.359375 0 Z M 1.515625 0 "/></g></g></g><g fill="#000000" fill-opacity="1"><g transform="translate(234.716174, 126.37888)"><g><path d="M 0.15625 0 L 5.171875 -12.59375 L 7.96875 -12.59375 L 12.984375 0 L 9.921875 0 L 9.078125 -2.171875 L 4.0625 -2.171875 L 3.21875 0 Z M 4.8125 -4.421875 L 8.359375 -4.421875 L 6.5625 -9.03125 Z M 4.8125 -4.421875 "/></g></g></g><g fill="#000000" fill-opacity="1"><g transform="translate(97.041092, 151.128878)"><g><path d="M 7.296875 0.25 C 6.015625 0.25 4.882812 -0.0234375 3.90625 -0.578125 C 2.925781 -1.140625 2.160156 -1.910156 1.609375 -2.890625 C 1.054688 -3.878906 0.78125 -5.015625 0.78125 -6.296875 C 0.78125 -7.578125 1.054688 -8.707031 1.609375 -9.6875 C 2.160156 -10.675781 2.921875 -11.453125 3.890625 -12.015625 C 4.867188 -12.578125 5.992188 -12.859375 7.265625 -12.859375 C 8.335938 -12.859375 9.316406 -12.648438 10.203125 -12.234375 C 11.085938 -11.828125 11.832031 -11.25 12.4375 -10.5 C 13.050781 -9.757812 13.476562 -8.890625 13.71875 -7.890625 L 10.765625 -7.890625 C 10.523438 -8.578125 10.097656 -9.125 9.484375 -9.53125 C 8.867188 -9.9375 8.160156 -10.140625 7.359375 -10.140625 C 6.648438 -10.140625 6.015625 -9.972656 5.453125 -9.640625 C 4.898438 -9.316406 4.46875 -8.867188 4.15625 -8.296875 C 3.84375 -7.722656 3.6875 -7.054688 3.6875 -6.296875 C 3.6875 -5.546875 3.84375 -4.878906 4.15625 -4.296875 C 4.46875 -3.722656 4.898438 -3.273438 5.453125 -2.953125 C 6.003906 -2.628906 6.632812 -2.46875 7.34375 -2.46875 C 8.175781 -2.46875 8.898438 -2.679688 9.515625 -3.109375 C 10.140625 -3.535156 10.585938 -4.109375 10.859375 -4.828125 L 13.8125 -4.828125 C 13.601562 -3.804688 13.191406 -2.914062 12.578125 -2.15625 C 11.960938 -1.394531 11.203125 -0.800781 10.296875 -0.375 C 9.398438 0.0390625 8.398438 0.25 7.296875 0.25 Z M 7.296875 0.25 "/></g></g></g><g fill="#000000" fill-opacity="1"><g transform="translate(117.760676, 151.128878)"><g><path d="M 0.15625 0 L 5.171875 -12.59375 L 7.96875 -12.59375 L 12.984375 0 L 9.921875 0 L 9.078125 -2.171875 L 4.0625 -2.171875 L 3.21875 0 Z M 4.8125 -4.421875 L 8.359375 -4.421875 L 6.5625 -9.03125 Z M 4.8125 -4.421875 "/></g></g></g><g fill="#000000" fill-opacity="1"><g transform="translate(137.094255, 151.128878)"><g><path d="M 1.515625 0 L 1.515625 -12.59375 L 6.4375 -12.59375 C 7.457031 -12.59375 8.335938 -12.40625 9.078125 -12.03125 C 9.828125 -11.664062 10.410156 -11.140625 10.828125 -10.453125 C 11.242188 -9.773438 11.453125 -8.972656 11.453125 -8.046875 C 11.453125 -7.128906 11.242188 -6.328125 10.828125 -5.640625 C 10.410156 -4.960938 9.828125 -4.4375 9.078125 -4.0625 C 8.335938 -3.695312 7.457031 -3.515625 6.4375 -3.515625 L 4.375 -3.515625 L 4.375 0 Z M 4.359375 -5.96875 L 6.203125 -5.96875 C 6.953125 -5.96875 7.523438 -6.144531 7.921875 -6.5 C 8.328125 -6.851562 8.53125 -7.363281 8.53125 -8.03125 C 8.53125 -8.6875 8.328125 -9.191406 7.921875 -9.546875 C 7.523438 -9.910156 6.953125 -10.09375 6.203125 -10.09375 L 4.359375 -10.09375 Z M 4.359375 -5.96875 "/></g></g></g><g fill="#000000" fill-opacity="1"><g transform="translate(155.257835, 151.128878)"><g><path d="M 1.515625 0 L 1.515625 -12.59375 L 4.375 -12.59375 L 4.375 0 Z M 1.515625 0 "/></g></g></g><g fill="#000000" fill-opacity="1"><g transform="translate(167.33744, 151.128878)"><g><path d="M 4.53125 0 L 4.53125 -9.921875 L 0.546875 -9.921875 L 0.546875 -12.59375 L 11.390625 -12.59375 L 11.390625 -9.921875 L 7.390625 -9.921875 L 7.390625 0 Z M 4.53125 0 "/></g></g></g><g fill="#000000" fill-opacity="1"><g transform="translate(185.465028, 151.128878)"><g><path d="M 0.15625 0 L 5.171875 -12.59375 L 7.96875 -12.59375 L 12.984375 0 L 9.921875 0 L 9.078125 -2.171875 L 4.0625 -2.171875 L 3.21875 0 Z M 4.8125 -4.421875 L 8.359375 -4.421875 L 6.5625 -9.03125 Z M 4.8125 -4.421875 "/></g></g></g><g fill="#000000" fill-opacity="1"><g transform="translate(204.798607, 151.128878)"><g><path d="M 1.515625 0 L 1.515625 -12.59375 L 4.375 -12.59375 L 4.375 -2.6875 L 9.875 -2.6875 L 9.875 0 Z M 1.515625 0 "/></g></g></g></svg>