<svg xmlns="http://www.w3.org/2000/svg" xmlns:xlink="http://www.w3.org/1999/xlink" width="500" zoomAndPan="magnify" viewBox="0 0 375 374.999991" height="500" preserveAspectRatio="xMidYMid meet" version="1.0"><defs><g/><clipPath id="520eb39da0"><path d="M 0.00390625 0.160156 L 374.996094 0.160156 L 374.996094 374.832031 L 0.00390625 374.832031 Z M 0.00390625 0.160156 " clip-rule="nonzero"/></clipPath></defs><g clip-path="url(#520eb39da0)"><path stroke-linecap="butt" transform="matrix(0.75, 0, 0, 0.75, 0.00533163, 0.158732)" fill="none" stroke-linejoin="miter" d="M -0.0019005 0.00189903 L 499.987716 0.00189903 L 499.987716 499.564432 L -0.0019005 499.564432 Z M -0.0019005 0.00189903 " stroke="#000000" stroke-width="8" stroke-opacity="1" stroke-miterlimit="4"/></g><g fill="#000000" fill-opacity="1"><g transform="translate(18.441016, 66.89759)"><g><path d="M 17.015625 0.59375 C 14.046875 0.59375 11.410156 -0.0546875 9.109375 -1.359375 C 6.816406 -2.660156 5.023438 -4.457031 3.734375 -6.75 C 2.453125 -9.050781 1.8125 -11.703125 1.8125 -14.703125 C 1.8125 -17.691406 2.453125 -20.332031 3.734375 -22.625 C 5.023438 -24.925781 6.8125 -26.726562 9.09375 -28.03125 C 11.375 -29.332031 14 -29.984375 16.96875 -29.984375 C 19.457031 -29.984375 21.738281 -29.503906 23.8125 -28.546875 C 25.882812 -27.597656 27.625 -26.253906 29.03125 -24.515625 C 30.445312 -22.785156 31.4375 -20.742188 32 -18.390625 L 25.109375 -18.390625 C 24.554688 -20.015625 23.5625 -21.296875 22.125 -22.234375 C 20.695312 -23.171875 19.046875 -23.640625 17.171875 -23.640625 C 15.523438 -23.640625 14.050781 -23.257812 12.75 -22.5 C 11.445312 -21.75 10.429688 -20.703125 9.703125 -19.359375 C 8.972656 -18.015625 8.609375 -16.460938 8.609375 -14.703125 C 8.609375 -12.929688 8.972656 -11.375 9.703125 -10.03125 C 10.429688 -8.6875 11.4375 -7.632812 12.71875 -6.875 C 14.007812 -6.125 15.484375 -5.75 17.140625 -5.75 C 19.066406 -5.75 20.757812 -6.242188 22.21875 -7.234375 C 23.675781 -8.234375 24.710938 -9.570312 25.328125 -11.25 L 32.21875 -11.25 C 31.738281 -8.875 30.785156 -6.796875 29.359375 -5.015625 C 27.929688 -3.242188 26.160156 -1.863281 24.046875 -0.875 C 21.929688 0.101562 19.585938 0.59375 17.015625 0.59375 Z M 17.015625 0.59375 "/></g></g></g><g fill="#000000" fill-opacity="1"><g transform="translate(58.625466, 66.89759)"><g><path d="M 0.375 0 L 12.046875 -29.40625 L 18.609375 -29.40625 L 30.28125 0 L 23.140625 0 L 21.171875 -5.078125 L 9.484375 -5.078125 L 7.515625 0 Z M 11.21875 -10.328125 L 19.484375 -10.328125 L 15.328125 -21.078125 Z M 11.21875 -10.328125 "/></g></g></g><g fill="#000000" fill-opacity="1"><g transform="translate(95.576834, 66.89759)"><g><path d="M 3.53125 0 L 3.53125 -29.40625 L 9.203125 -29.40625 L 19.65625 -14.15625 L 30.078125 -29.40625 L 35.703125 -29.40625 L 35.703125 0 L 29.0625 0 L 29.0625 -17.6875 L 21.921875 -7.265625 L 17.296875 -7.265625 L 10.15625 -17.71875 L 10.15625 0 Z M 3.53125 0 "/></g></g></g><g fill="#000000" fill-opacity="1"><g transform="translate(141.093783, 66.89759)"><g><path d="M 3.53125 0 L 3.53125 -29.40625 L 16.671875 -29.40625 C 19.671875 -29.40625 22.050781 -28.6875 23.8125 -27.25 C 25.570312 -25.820312 26.453125 -23.90625 26.453125 -21.5 C 26.453125 -20.132812 26.144531 -18.890625 25.53125 -17.765625 C 24.914062 -16.648438 24.050781 -15.769531 22.9375 -15.125 C 24.332031 -14.507812 25.414062 -13.597656 26.1875 -12.390625 C 26.957031 -11.179688 27.34375 -9.796875 27.34375 -8.234375 C 27.34375 -6.578125 26.921875 -5.132812 26.078125 -3.90625 C 25.242188 -2.675781 24.078125 -1.71875 22.578125 -1.03125 C 21.078125 -0.34375 19.332031 0 17.34375 0 Z M 10.125 -5.296875 L 16.34375 -5.296875 C 17.65625 -5.296875 18.675781 -5.601562 19.40625 -6.21875 C 20.132812 -6.832031 20.5 -7.695312 20.5 -8.8125 C 20.5 -9.9375 20.132812 -10.804688 19.40625 -11.421875 C 18.675781 -12.035156 17.65625 -12.34375 16.34375 -12.34375 L 10.125 -12.34375 Z M 10.125 -17.4375 L 15.671875 -17.4375 C 16.953125 -17.4375 17.9375 -17.726562 18.625 -18.3125 C 19.3125 -18.894531 19.65625 -19.722656 19.65625 -20.796875 C 19.65625 -21.859375 19.3125 -22.675781 18.625 -23.25 C 17.9375 -23.820312 16.953125 -24.109375 15.671875 -24.109375 L 10.125 -24.109375 Z M 10.125 -17.4375 "/></g></g></g><g fill="#000000" fill-opacity="1"><g transform="translate(176.323628, 66.89759)"><g><path d="M 3.53125 0 L 3.53125 -29.40625 L 16.09375 -29.40625 C 18.332031 -29.40625 20.273438 -29 21.921875 -28.1875 C 23.578125 -27.375 24.851562 -26.207031 25.75 -24.6875 C 26.644531 -23.175781 27.09375 -21.375 27.09375 -19.28125 C 27.09375 -17.125 26.601562 -15.265625 25.625 -13.703125 C 24.644531 -12.148438 23.269531 -10.984375 21.5 -10.203125 L 27.59375 0 L 19.859375 0 L 14.609375 -9.15625 L 10.203125 -9.15625 L 10.203125 0 Z M 10.125 -14.78125 L 15.203125 -14.78125 C 16.859375 -14.78125 18.125 -15.164062 19 -15.9375 C 19.882812 -16.707031 20.328125 -17.804688 20.328125 -19.234375 C 20.328125 -20.660156 19.882812 -21.757812 19 -22.53125 C 18.125 -23.300781 16.859375 -23.6875 15.203125 -23.6875 L 10.125 -23.6875 Z M 10.125 -14.78125 "/></g></g></g><g fill="#000000" fill-opacity="1"><g transform="translate(212.183298, 66.89759)"><g><path d="M 3.53125 0 L 3.53125 -29.40625 L 22.84375 -29.40625 L 22.84375 -23.765625 L 10.15625 -23.765625 L 10.15625 -17.6875 L 21.71875 -17.6875 L 21.71875 -12.09375 L 10.15625 -12.09375 L 10.15625 -5.671875 L 23.3125 -5.671875 L 23.3125 0 Z M 3.53125 0 "/></g></g></g><g fill="#000000" fill-opacity="1"><g transform="translate(243.928131, 66.89759)"><g><path d="M 3.53125 0 L 3.53125 -29.40625 L 9.203125 -29.40625 L 22.171875 -11.515625 L 22.171875 -29.40625 L 28.8125 -29.40625 L 28.8125 0 L 23.140625 0 L 10.15625 -18.015625 L 10.15625 0 Z M 3.53125 0 "/></g></g></g><g fill="#000000" fill-opacity="1"><g transform="translate(282.559011, 66.89759)"><g><path d="M 0.375 0 L 12.046875 -29.40625 L 18.609375 -29.40625 L 30.28125 0 L 23.140625 0 L 21.171875 -5.078125 L 9.484375 -5.078125 L 7.515625 0 Z M 11.21875 -10.328125 L 19.484375 -10.328125 L 15.328125 -21.078125 Z M 11.21875 -10.328125 "/></g></g></g><g fill="#000000" fill-opacity="1"><g transform="translate(18.441016, 125.397586)"><g><path d="M 17.015625 0.59375 C 14.046875 0.59375 11.410156 -0.0546875 9.109375 -1.359375 C 6.816406 -2.660156 5.023438 -4.457031 3.734375 -6.75 C 2.453125 -9.050781 1.8125 -11.703125 1.8125 -14.703125 C 1.8125 -17.691406 2.453125 -20.332031 3.734375 -22.625 C 5.023438 -24.925781 6.8125 -26.726562 9.09375 -28.03125 C 11.375 -29.332031 14 -29.984375 16.96875 -29.984375 C 19.457031 -29.984375 21.738281 -29.503906 23.8125 -28.546875 C 25.882812 -27.597656 27.625 -26.253906 29.03125 -24.515625 C 30.445312 -22.785156 31.4375 -20.742188 32 -18.390625 L 25.109375 -18.390625 C 24.554688 -20.015625 23.5625 -21.296875 22.125 -22.234375 C 20.695312 -23.171875 19.046875 -23.640625 17.171875 -23.640625 C 15.523438 -23.640625 14.050781 -23.257812 12.75 -22.5 C 11.445312 -21.75 10.429688 -20.703125 9.703125 -19.359375 C 8.972656 -18.015625 8.609375 -16.460938 8.609375 -14.703125 C 8.609375 -12.929688 8.972656 -11.375 9.703125 -10.03125 C 10.429688 -8.6875 11.4375 -7.632812 12.71875 -6.875 C 14.007812 -6.125 15.484375 -5.75 17.140625 -5.75 C 19.066406 -5.75 20.757812 -6.242188 22.21875 -7.234375 C 23.675781 -8.234375 24.710938 -9.570312 25.328125 -11.25 L 32.21875 -11.25 C 31.738281 -8.875 30.785156 -6.796875 29.359375 -5.015625 C 27.929688 -3.242188 26.160156 -1.863281 24.046875 -0.875 C 21.929688 0.101562 19.585938 0.59375 17.015625 0.59375 Z M 17.015625 0.59375 "/></g></g></g><g fill="#000000" fill-opacity="1"><g transform="translate(58.625466, 125.397586)"><g><path d="M 0.375 0 L 12.046875 -29.40625 L 18.609375 -29.40625 L 30.28125 0 L 23.140625 0 L 21.171875 -5.078125 L 9.484375 -5.078125 L 7.515625 0 Z M 11.21875 -10.328125 L 19.484375 -10.328125 L 15.328125 -21.078125 Z M 11.21875 -10.328125 "/></g></g></g><g fill="#000000" fill-opacity="1"><g transform="translate(95.576834, 125.397586)"><g><path d="M 3.53125 0 L 3.53125 -29.40625 L 15.03125 -29.40625 C 17.414062 -29.40625 19.472656 -28.96875 21.203125 -28.09375 C 22.941406 -27.226562 24.296875 -26 25.265625 -24.40625 C 26.234375 -22.8125 26.71875 -20.9375 26.71875 -18.78125 C 26.71875 -16.644531 26.234375 -14.78125 25.265625 -13.1875 C 24.296875 -11.59375 22.941406 -10.359375 21.203125 -9.484375 C 19.472656 -8.617188 17.414062 -8.1875 15.03125 -8.1875 L 10.203125 -8.1875 L 10.203125 0 Z M 10.15625 -13.9375 L 14.484375 -13.9375 C 16.222656 -13.9375 17.5625 -14.347656 18.5 -15.171875 C 19.4375 -16.003906 19.90625 -17.191406 19.90625 -18.734375 C 19.90625 -20.273438 19.4375 -21.460938 18.5 -22.296875 C 17.5625 -23.140625 16.222656 -23.5625 14.484375 -23.5625 L 10.15625 -23.5625 Z M 10.15625 -13.9375 "/></g></g></g><g fill="#000000" fill-opacity="1"><g transform="translate(129.798969, 125.397586)"><g><path d="M 3.53125 0 L 3.53125 -29.40625 L 10.203125 -29.40625 L 10.203125 0 Z M 3.53125 0 "/></g></g></g><g fill="#000000" fill-opacity="1"><g transform="translate(149.829093, 125.397586)"><g><path d="M 10.578125 0 L 10.578125 -23.140625 L 1.265625 -23.140625 L 1.265625 -29.40625 L 26.59375 -29.40625 L 26.59375 -23.140625 L 17.265625 -23.140625 L 17.265625 0 Z M 10.578125 0 "/></g></g></g><g fill="#000000" fill-opacity="1"><g transform="translate(183.967251, 125.397586)"><g><path d="M 0.375 0 L 12.046875 -29.40625 L 18.609375 -29.40625 L 30.28125 0 L 23.140625 0 L 21.171875 -5.078125 L 9.484375 -5.078125 L 7.515625 0 Z M 11.21875 -10.328125 L 19.484375 -10.328125 L 15.328125 -21.078125 Z M 11.21875 -10.328125 "/></g></g></g><g fill="#000000" fill-opacity="1"><g transform="translate(220.918619, 125.397586)"><g><path d="M 3.53125 0 L 3.53125 -29.40625 L 10.203125 -29.40625 L 10.203125 -6.265625 L 23.0625 -6.265625 L 23.0625 0 Z M 3.53125 0 "/></g></g></g></svg>