<svg xmlns="http://www.w3.org/2000/svg" xmlns:xlink="http://www.w3.org/1999/xlink" width="500" zoomAndPan="magnify" viewBox="0 0 375 374.999991" height="500" preserveAspectRatio="xMidYMid meet" version="1.0"><defs><g/><clipPath id="e2cd6fa748"><path d="M 0.00390625 0.160156 L 374.996094 0.160156 L 374.996094 374.832031 L 0.00390625 374.832031 Z M 0.00390625 0.160156 " clip-rule="nonzero"/></clipPath></defs><g clip-path="url(#e2cd6fa748)"><path stroke-linecap="butt" transform="matrix(0.75, 0, 0, 0.75, 0.00533163, 0.158732)" fill="none" stroke-linejoin="miter" d="M -0.0019005 0.00189903 L 499.987716 0.00189903 L 499.987716 499.564432 L -0.0019005 499.564432 Z M -0.0019005 0.00189903 " stroke="#000000" stroke-width="8" stroke-opacity="1" stroke-miterlimit="4"/></g><g fill="#000000" fill-opacity="1"><g transform="translate(29.893032, 74.847582)"><g><path d="M 20.25 0.703125 C 16.71875 0.703125 13.582031 -0.0703125 10.84375 -1.625 C 8.113281 -3.175781 5.984375 -5.316406 4.453125 -8.046875 C 2.921875 -10.785156 2.15625 -13.9375 2.15625 -17.5 C 2.15625 -21.0625 2.921875 -24.207031 4.453125 -26.9375 C 5.984375 -29.675781 8.109375 -31.820312 10.828125 -33.375 C 13.546875 -34.925781 16.671875 -35.703125 20.203125 -35.703125 C 23.171875 -35.703125 25.882812 -35.132812 28.34375 -34 C 30.8125 -32.863281 32.882812 -31.257812 34.5625 -29.1875 C 36.25 -27.125 37.425781 -24.695312 38.09375 -21.90625 L 29.90625 -21.90625 C 29.238281 -23.832031 28.050781 -25.351562 26.34375 -26.46875 C 24.644531 -27.59375 22.679688 -28.15625 20.453125 -28.15625 C 18.484375 -28.15625 16.722656 -27.703125 15.171875 -26.796875 C 13.617188 -25.898438 12.410156 -24.648438 11.546875 -23.046875 C 10.679688 -21.453125 10.25 -19.601562 10.25 -17.5 C 10.25 -15.394531 10.679688 -13.539062 11.546875 -11.9375 C 12.410156 -10.34375 13.609375 -9.09375 15.140625 -8.1875 C 16.679688 -7.289062 18.4375 -6.84375 20.40625 -6.84375 C 22.695312 -6.84375 24.707031 -7.4375 26.4375 -8.625 C 28.175781 -9.8125 29.414062 -11.40625 30.15625 -13.40625 L 38.34375 -13.40625 C 37.78125 -10.570312 36.648438 -8.09375 34.953125 -5.96875 C 33.253906 -3.851562 31.144531 -2.210938 28.625 -1.046875 C 26.101562 0.117188 23.3125 0.703125 20.25 0.703125 Z M 20.25 0.703125 "/></g></g></g><g fill="#000000" fill-opacity="1"><g transform="translate(70.236784, 74.847582)"><g><path d="M 0.453125 0 L 14.34375 -35 L 22.15625 -35 L 36.046875 0 L 27.546875 0 L 25.203125 -6.046875 L 11.296875 -6.046875 L 8.953125 0 Z M 13.34375 -12.296875 L 23.203125 -12.296875 L 18.25 -25.09375 Z M 13.34375 -12.296875 "/></g></g></g><g fill="#000000" fill-opacity="1"><g transform="translate(106.731132, 74.847582)"><g><path d="M 4.203125 0 L 4.203125 -35 L 10.953125 -35 L 23.40625 -16.84375 L 35.796875 -35 L 42.5 -35 L 42.5 0 L 34.59375 0 L 34.59375 -21.046875 L 26.09375 -8.65625 L 20.59375 -8.65625 L 12.09375 -21.09375 L 12.09375 0 Z M 4.203125 0 "/></g></g></g><g fill="#000000" fill-opacity="1"><g transform="translate(153.423904, 74.847582)"><g><path d="M 4.203125 0 L 4.203125 -35 L 19.84375 -35 C 23.414062 -35 26.25 -34.148438 28.34375 -32.453125 C 30.445312 -30.753906 31.5 -28.46875 31.5 -25.59375 C 31.5 -23.96875 31.128906 -22.488281 30.390625 -21.15625 C 29.660156 -19.820312 28.628906 -18.769531 27.296875 -18 C 28.960938 -17.269531 30.253906 -16.1875 31.171875 -14.75 C 32.085938 -13.3125 32.546875 -11.660156 32.546875 -9.796875 C 32.546875 -7.828125 32.046875 -6.109375 31.046875 -4.640625 C 30.046875 -3.179688 28.65625 -2.039062 26.875 -1.21875 C 25.09375 -0.40625 23.019531 0 20.65625 0 Z M 12.046875 -6.296875 L 19.453125 -6.296875 C 21.015625 -6.296875 22.226562 -6.660156 23.09375 -7.390625 C 23.96875 -8.128906 24.40625 -9.164062 24.40625 -10.5 C 24.40625 -11.832031 23.96875 -12.863281 23.09375 -13.59375 C 22.226562 -14.332031 21.015625 -14.703125 19.453125 -14.703125 L 12.046875 -14.703125 Z M 12.046875 -20.75 L 18.65625 -20.75 C 20.1875 -20.75 21.359375 -21.097656 22.171875 -21.796875 C 22.992188 -22.492188 23.40625 -23.476562 23.40625 -24.75 C 23.40625 -26.019531 22.992188 -26.992188 22.171875 -27.671875 C 21.359375 -28.359375 20.1875 -28.703125 18.65625 -28.703125 L 12.046875 -28.703125 Z M 12.046875 -20.75 "/></g></g></g><g fill="#000000" fill-opacity="1"><g transform="translate(187.86857, 74.847582)"><g><path d="M 4.203125 0 L 4.203125 -35 L 19.15625 -35 C 21.820312 -35 24.132812 -34.515625 26.09375 -33.546875 C 28.0625 -32.578125 29.578125 -31.191406 30.640625 -29.390625 C 31.710938 -27.597656 32.25 -25.453125 32.25 -22.953125 C 32.25 -20.378906 31.664062 -18.164062 30.5 -16.3125 C 29.332031 -14.46875 27.695312 -13.082031 25.59375 -12.15625 L 32.84375 0 L 23.65625 0 L 17.40625 -10.90625 L 12.15625 -10.90625 L 12.15625 0 Z M 12.046875 -17.59375 L 18.09375 -17.59375 C 20.0625 -17.59375 21.570312 -18.050781 22.625 -18.96875 C 23.675781 -19.882812 24.203125 -21.195312 24.203125 -22.90625 C 24.203125 -24.601562 23.675781 -25.910156 22.625 -26.828125 C 21.570312 -27.742188 20.0625 -28.203125 18.09375 -28.203125 L 12.046875 -28.203125 Z M 12.046875 -17.59375 "/></g></g></g><g fill="#000000" fill-opacity="1"><g transform="translate(223.06311, 74.847582)"><g><path d="M 4.203125 0 L 4.203125 -35 L 27.203125 -35 L 27.203125 -28.296875 L 12.09375 -28.296875 L 12.09375 -21.046875 L 25.84375 -21.046875 L 25.84375 -14.40625 L 12.09375 -14.40625 L 12.09375 -6.75 L 27.75 -6.75 L 27.75 0 Z M 4.203125 0 "/></g></g></g><g fill="#000000" fill-opacity="1"><g transform="translate(253.358434, 74.847582)"><g><path d="M 4.203125 0 L 4.203125 -35 L 10.953125 -35 L 26.40625 -13.703125 L 26.40625 -35 L 34.296875 -35 L 34.296875 0 L 27.546875 0 L 12.09375 -21.453125 L 12.09375 0 Z M 4.203125 0 "/></g></g></g><g fill="#000000" fill-opacity="1"><g transform="translate(291.852488, 74.847582)"><g><path d="M 0.453125 0 L 14.34375 -35 L 22.15625 -35 L 36.046875 0 L 27.546875 0 L 25.203125 -6.046875 L 11.296875 -6.046875 L 8.953125 0 Z M 13.34375 -12.296875 L 23.203125 -12.296875 L 18.25 -25.09375 Z M 13.34375 -12.296875 "/></g></g></g><g fill="#000000" fill-opacity="1"><g transform="translate(29.893032, 134.847578)"><g><path d="M 20.25 0.703125 C 16.71875 0.703125 13.582031 -0.0703125 10.84375 -1.625 C 8.113281 -3.175781 5.984375 -5.316406 4.453125 -8.046875 C 2.921875 -10.785156 2.15625 -13.9375 2.15625 -17.5 C 2.15625 -21.0625 2.921875 -24.207031 4.453125 -26.9375 C 5.984375 -29.675781 8.109375 -31.820312 10.828125 -33.375 C 13.546875 -34.925781 16.671875 -35.703125 20.203125 -35.703125 C 23.171875 -35.703125 25.882812 -35.132812 28.34375 -34 C 30.8125 -32.863281 32.882812 -31.257812 34.5625 -29.1875 C 36.25 -27.125 37.425781 -24.695312 38.09375 -21.90625 L 29.90625 -21.90625 C 29.238281 -23.832031 28.050781 -25.351562 26.34375 -26.46875 C 24.644531 -27.59375 22.679688 -28.15625 20.453125 -28.15625 C 18.484375 -28.15625 16.722656 -27.703125 15.171875 -26.796875 C 13.617188 -25.898438 12.410156 -24.648438 11.546875 -23.046875 C 10.679688 -21.453125 10.25 -19.601562 10.25 -17.5 C 10.25 -15.394531 10.679688 -13.539062 11.546875 -11.9375 C 12.410156 -10.34375 13.609375 -9.09375 15.140625 -8.1875 C 16.679688 -7.289062 18.4375 -6.84375 20.40625 -6.84375 C 22.695312 -6.84375 24.707031 -7.4375 26.4375 -8.625 C 28.175781 -9.8125 29.414062 -11.40625 30.15625 -13.40625 L 38.34375 -13.40625 C 37.78125 -10.570312 36.648438 -8.09375 34.953125 -5.96875 C 33.253906 -3.851562 31.144531 -2.210938 28.625 -1.046875 C 26.101562 0.117188 23.3125 0.703125 20.25 0.703125 Z M 20.25 0.703125 "/></g></g></g><g fill="#000000" fill-opacity="1"><g transform="translate(70.236784, 134.847578)"><g><path d="M 0.453125 0 L 14.34375 -35 L 22.15625 -35 L 36.046875 0 L 27.546875 0 L 25.203125 -6.046875 L 11.296875 -6.046875 L 8.953125 0 Z M 13.34375 -12.296875 L 23.203125 -12.296875 L 18.25 -25.09375 Z M 13.34375 -12.296875 "/></g></g></g><g fill="#000000" fill-opacity="1"><g transform="translate(106.731132, 134.847578)"><g><path d="M 4.203125 0 L 4.203125 -35 L 17.90625 -35 C 20.738281 -35 23.1875 -34.484375 25.25 -33.453125 C 27.3125 -32.421875 28.914062 -30.953125 30.0625 -29.046875 C 31.21875 -27.148438 31.796875 -24.914062 31.796875 -22.34375 C 31.796875 -19.8125 31.21875 -17.59375 30.0625 -15.6875 C 28.914062 -13.789062 27.3125 -12.328125 25.25 -11.296875 C 23.1875 -10.265625 20.738281 -9.75 17.90625 -9.75 L 12.15625 -9.75 L 12.15625 0 Z M 12.09375 -16.59375 L 17.25 -16.59375 C 19.3125 -16.59375 20.898438 -17.082031 22.015625 -18.0625 C 23.140625 -19.050781 23.703125 -20.460938 23.703125 -22.296875 C 23.703125 -24.128906 23.140625 -25.546875 22.015625 -26.546875 C 20.898438 -27.546875 19.3125 -28.046875 17.25 -28.046875 L 12.09375 -28.046875 Z M 12.09375 -16.59375 "/></g></g></g><g fill="#000000" fill-opacity="1"><g transform="translate(139.975987, 134.847578)"><g><path d="M 4.203125 0 L 4.203125 -35 L 12.15625 -35 L 12.15625 0 Z M 4.203125 0 "/></g></g></g><g fill="#000000" fill-opacity="1"><g transform="translate(156.32346, 134.847578)"><g><path d="M 12.59375 0 L 12.59375 -27.546875 L 1.5 -27.546875 L 1.5 -35 L 31.65625 -35 L 31.65625 -27.546875 L 20.546875 -27.546875 L 20.546875 0 Z M 12.59375 0 "/></g></g></g><g fill="#000000" fill-opacity="1"><g transform="translate(189.468328, 134.847578)"><g><path d="M 0.453125 0 L 14.34375 -35 L 22.15625 -35 L 36.046875 0 L 27.546875 0 L 25.203125 -6.046875 L 11.296875 -6.046875 L 8.953125 0 Z M 13.34375 -12.296875 L 23.203125 -12.296875 L 18.25 -25.09375 Z M 13.34375 -12.296875 "/></g></g></g><g fill="#000000" fill-opacity="1"><g transform="translate(225.962676, 134.847578)"><g><path d="M 4.203125 0 L 4.203125 -35 L 12.15625 -35 L 12.15625 -7.453125 L 27.453125 -7.453125 L 27.453125 0 Z M 4.203125 0 "/></g></g></g></svg>