<svg xmlns="http://www.w3.org/2000/svg" xmlns:xlink="http://www.w3.org/1999/xlink" width="500" zoomAndPan="magnify" viewBox="0 0 375 374.999991" height="500" preserveAspectRatio="xMidYMid meet" version="1.0"><defs><g/><clipPath id="8410aeeef3"><path d="M 0.00390625 0.160156 L 374.996094 0.160156 L 374.996094 374.832031 L 0.00390625 374.832031 Z M 0.00390625 0.160156 " clip-rule="nonzero"/></clipPath></defs><g clip-path="url(#8410aeeef3)"><path stroke-linecap="butt" transform="matrix(0.75, 0, 0, 0.75, 0.00533163, 0.158732)" fill="none" stroke-linejoin="miter" d="M -0.0019005 0.00189903 L 499.987716 0.00189903 L 499.987716 499.564432 L -0.0019005 499.564432 Z M -0.0019005 0.00189903 " stroke="#000000" stroke-width="8" stroke-opacity="1" stroke-miterlimit="4"/></g><g fill="#000000" fill-opacity="1"><g transform="translate(18.441016, 62.897578)"><g><path d="M 14.984375 0.515625 C 12.367188 0.515625 10.050781 -0.0546875 8.03125 -1.203125 C 6.007812 -2.347656 4.429688 -3.929688 3.296875 -5.953125 C 2.160156 -7.972656 1.59375 -10.304688 1.59375 -12.953125 C 1.59375 -15.585938 2.160156 -17.914062 3.296875 -19.9375 C 4.429688 -21.96875 6.003906 -23.554688 8.015625 -24.703125 C 10.023438 -25.847656 12.335938 -26.421875 14.953125 -26.421875 C 17.140625 -26.421875 19.144531 -26 20.96875 -25.15625 C 22.800781 -24.320312 24.335938 -23.140625 25.578125 -21.609375 C 26.828125 -20.078125 27.695312 -18.273438 28.1875 -16.203125 L 22.125 -16.203125 C 21.632812 -17.640625 20.757812 -18.769531 19.5 -19.59375 C 18.238281 -20.414062 16.785156 -20.828125 15.140625 -20.828125 C 13.679688 -20.828125 12.378906 -20.492188 11.234375 -19.828125 C 10.085938 -19.160156 9.191406 -18.234375 8.546875 -17.046875 C 7.898438 -15.867188 7.578125 -14.503906 7.578125 -12.953125 C 7.578125 -11.398438 7.898438 -10.03125 8.546875 -8.84375 C 9.191406 -7.65625 10.078125 -6.726562 11.203125 -6.0625 C 12.335938 -5.394531 13.632812 -5.0625 15.09375 -5.0625 C 16.800781 -5.0625 18.296875 -5.5 19.578125 -6.375 C 20.859375 -7.257812 21.769531 -8.441406 22.3125 -9.921875 L 28.375 -9.921875 C 27.957031 -7.816406 27.117188 -5.984375 25.859375 -4.421875 C 24.597656 -2.859375 23.035156 -1.644531 21.171875 -0.78125 C 19.316406 0.0820312 17.253906 0.515625 14.984375 0.515625 Z M 14.984375 0.515625 "/></g></g></g><g fill="#000000" fill-opacity="1"><g transform="translate(61.024857, 62.897578)"><g><path d="M 0.328125 0 L 10.625 -25.90625 L 16.390625 -25.90625 L 26.671875 0 L 20.390625 0 L 18.640625 -4.484375 L 8.359375 -4.484375 L 6.625 0 Z M 9.875 -9.109375 L 17.171875 -9.109375 L 13.5 -18.578125 Z M 9.875 -9.109375 "/></g></g></g><g fill="#000000" fill-opacity="1"><g transform="translate(100.76, 62.897578)"><g><path d="M 3.109375 0 L 3.109375 -25.90625 L 8.109375 -25.90625 L 17.3125 -12.46875 L 26.484375 -25.90625 L 31.453125 -25.90625 L 31.453125 0 L 25.609375 0 L 25.609375 -15.578125 L 19.3125 -6.40625 L 15.25 -6.40625 L 8.953125 -15.609375 L 8.953125 0 Z M 3.109375 0 "/></g></g></g><g fill="#000000" fill-opacity="1"><g transform="translate(148.042338, 62.897578)"><g><path d="M 3.109375 0 L 3.109375 -25.90625 L 14.6875 -25.90625 C 17.320312 -25.90625 19.414062 -25.273438 20.96875 -24.015625 C 22.53125 -22.753906 23.3125 -21.0625 23.3125 -18.9375 C 23.3125 -17.726562 23.039062 -16.628906 22.5 -15.640625 C 21.957031 -14.660156 21.191406 -13.882812 20.203125 -13.3125 C 21.429688 -12.769531 22.382812 -11.96875 23.0625 -10.90625 C 23.75 -9.851562 24.09375 -8.632812 24.09375 -7.25 C 24.09375 -5.789062 23.71875 -4.519531 22.96875 -3.4375 C 22.226562 -2.351562 21.195312 -1.507812 19.875 -0.90625 C 18.5625 -0.300781 17.03125 0 15.28125 0 Z M 8.921875 -4.65625 L 14.390625 -4.65625 C 15.546875 -4.65625 16.445312 -4.925781 17.09375 -5.46875 C 17.738281 -6.019531 18.0625 -6.785156 18.0625 -7.765625 C 18.0625 -8.753906 17.738281 -9.519531 17.09375 -10.0625 C 16.445312 -10.601562 15.546875 -10.875 14.390625 -10.875 L 8.921875 -10.875 Z M 8.921875 -15.359375 L 13.796875 -15.359375 C 14.929688 -15.359375 15.800781 -15.613281 16.40625 -16.125 C 17.007812 -16.644531 17.3125 -17.375 17.3125 -18.3125 C 17.3125 -19.25 17.007812 -19.96875 16.40625 -20.46875 C 15.800781 -20.976562 14.929688 -21.234375 13.796875 -21.234375 L 8.921875 -21.234375 Z M 8.921875 -15.359375 "/></g></g></g><g fill="#000000" fill-opacity="1"><g transform="translate(186.260646, 62.897578)"><g><path d="M 3.109375 0 L 3.109375 -25.90625 L 14.171875 -25.90625 C 16.140625 -25.90625 17.851562 -25.546875 19.3125 -24.828125 C 20.769531 -24.109375 21.890625 -23.082031 22.671875 -21.75 C 23.460938 -20.425781 23.859375 -18.835938 23.859375 -16.984375 C 23.859375 -15.085938 23.425781 -13.453125 22.5625 -12.078125 C 21.707031 -10.710938 20.5 -9.679688 18.9375 -8.984375 L 24.3125 0 L 17.5 0 L 12.875 -8.0625 L 8.984375 -8.0625 L 8.984375 0 Z M 8.921875 -13.03125 L 13.390625 -13.03125 C 14.847656 -13.03125 15.960938 -13.367188 16.734375 -14.046875 C 17.515625 -14.722656 17.90625 -15.691406 17.90625 -16.953125 C 17.90625 -18.203125 17.515625 -19.164062 16.734375 -19.84375 C 15.960938 -20.53125 14.847656 -20.875 13.390625 -20.875 L 8.921875 -20.875 Z M 8.921875 -13.03125 "/></g></g></g><g fill="#000000" fill-opacity="1"><g transform="translate(225.03389, 62.897578)"><g><path d="M 3.109375 0 L 3.109375 -25.90625 L 20.125 -25.90625 L 20.125 -20.9375 L 8.953125 -20.9375 L 8.953125 -15.578125 L 19.125 -15.578125 L 19.125 -10.65625 L 8.953125 -10.65625 L 8.953125 -5 L 20.53125 -5 L 20.53125 0 Z M 3.109375 0 "/></g></g></g><g fill="#000000" fill-opacity="1"><g transform="translate(260.181509, 62.897578)"><g><path d="M 3.109375 0 L 3.109375 -25.90625 L 8.109375 -25.90625 L 19.53125 -10.140625 L 19.53125 -25.90625 L 25.375 -25.90625 L 25.375 0 L 20.390625 0 L 8.953125 -15.875 L 8.953125 0 Z M 3.109375 0 "/></g></g></g><g fill="#000000" fill-opacity="1"><g transform="translate(301.396511, 62.897578)"><g><path d="M 0.328125 0 L 10.625 -25.90625 L 16.390625 -25.90625 L 26.671875 0 L 20.390625 0 L 18.640625 -4.484375 L 8.359375 -4.484375 L 6.625 0 Z M 9.875 -9.109375 L 17.171875 -9.109375 L 13.5 -18.578125 Z M 9.875 -9.109375 "/></g></g></g><g fill="#000000" fill-opacity="1"><g transform="translate(18.441016, 114.647574)"><g><path d="M 14.984375 0.515625 C 12.367188 0.515625 10.050781 -0.0546875 8.03125 -1.203125 C 6.007812 -2.347656 4.429688 -3.929688 3.296875 -5.953125 C 2.160156 -7.972656 1.59375 -10.304688 1.59375 -12.953125 C 1.59375 -15.585938 2.160156 -17.914062 3.296875 -19.9375 C 4.429688 -21.96875 6.003906 -23.554688 8.015625 -24.703125 C 10.023438 -25.847656 12.335938 -26.421875 14.953125 -26.421875 C 17.140625 -26.421875 19.144531 -26 20.96875 -25.15625 C 22.800781 -24.320312 24.335938 -23.140625 25.578125 -21.609375 C 26.828125 -20.078125 27.695312 -18.273438 28.1875 -16.203125 L 22.125 -16.203125 C 21.632812 -17.640625 20.757812 -18.769531 19.5 -19.59375 C 18.238281 -20.414062 16.785156 -20.828125 15.140625 -20.828125 C 13.679688 -20.828125 12.378906 -20.492188 11.234375 -19.828125 C 10.085938 -19.160156 9.191406 -18.234375 8.546875 -17.046875 C 7.898438 -15.867188 7.578125 -14.503906 7.578125 -12.953125 C 7.578125 -11.398438 7.898438 -10.03125 8.546875 -8.84375 C 9.191406 -7.65625 10.078125 -6.726562 11.203125 -6.0625 C 12.335938 -5.394531 13.632812 -5.0625 15.09375 -5.0625 C 16.800781 -5.0625 18.296875 -5.5 19.578125 -6.375 C 20.859375 -7.257812 21.769531 -8.441406 22.3125 -9.921875 L 28.375 -9.921875 C 27.957031 -7.816406 27.117188 -5.984375 25.859375 -4.421875 C 24.597656 -2.859375 23.035156 -1.644531 21.171875 -0.78125 C 19.316406 0.0820312 17.253906 0.515625 14.984375 0.515625 Z M 14.984375 0.515625 "/></g></g></g><g fill="#000000" fill-opacity="1"><g transform="translate(61.024857, 114.647574)"><g><path d="M 0.328125 0 L 10.625 -25.90625 L 16.390625 -25.90625 L 26.671875 0 L 20.390625 0 L 18.640625 -4.484375 L 8.359375 -4.484375 L 6.625 0 Z M 9.875 -9.109375 L 17.171875 -9.109375 L 13.5 -18.578125 Z M 9.875 -9.109375 "/></g></g></g><g fill="#000000" fill-opacity="1"><g transform="translate(100.76, 114.647574)"><g><path d="M 3.109375 0 L 3.109375 -25.90625 L 13.25 -25.90625 C 15.34375 -25.90625 17.15625 -25.519531 18.6875 -24.75 C 20.21875 -23.988281 21.40625 -22.90625 22.25 -21.5 C 23.101562 -20.09375 23.53125 -18.4375 23.53125 -16.53125 C 23.53125 -14.664062 23.101562 -13.03125 22.25 -11.625 C 21.40625 -10.21875 20.21875 -9.128906 18.6875 -8.359375 C 17.15625 -7.597656 15.34375 -7.21875 13.25 -7.21875 L 8.984375 -7.21875 L 8.984375 0 Z M 8.953125 -12.28125 L 12.765625 -12.28125 C 14.296875 -12.28125 15.472656 -12.644531 16.296875 -13.375 C 17.117188 -14.101562 17.53125 -15.144531 17.53125 -16.5 C 17.53125 -17.851562 17.117188 -18.898438 16.296875 -19.640625 C 15.472656 -20.378906 14.296875 -20.75 12.765625 -20.75 L 8.953125 -20.75 Z M 8.953125 -12.28125 "/></g></g></g><g fill="#000000" fill-opacity="1"><g transform="translate(138.090396, 114.647574)"><g><path d="M 3.109375 0 L 3.109375 -25.90625 L 8.984375 -25.90625 L 8.984375 0 Z M 3.109375 0 "/></g></g></g><g fill="#000000" fill-opacity="1"><g transform="translate(162.91612, 114.647574)"><g><path d="M 9.328125 0 L 9.328125 -20.390625 L 1.109375 -20.390625 L 1.109375 -25.90625 L 23.421875 -25.90625 L 23.421875 -20.390625 L 15.203125 -20.390625 L 15.203125 0 Z M 9.328125 0 "/></g></g></g><g fill="#000000" fill-opacity="1"><g transform="translate(200.17253, 114.647574)"><g><path d="M 0.328125 0 L 10.625 -25.90625 L 16.390625 -25.90625 L 26.671875 0 L 20.390625 0 L 18.640625 -4.484375 L 8.359375 -4.484375 L 6.625 0 Z M 9.875 -9.109375 L 17.171875 -9.109375 L 13.5 -18.578125 Z M 9.875 -9.109375 "/></g></g></g><g fill="#000000" fill-opacity="1"><g transform="translate(239.907662, 114.647574)"><g><path d="M 3.109375 0 L 3.109375 -25.90625 L 8.984375 -25.90625 L 8.984375 -5.515625 L 20.3125 -5.515625 L 20.3125 0 Z M 3.109375 0 "/></g></g></g></svg>