<svg xmlns="http://www.w3.org/2000/svg" xmlns:xlink="http://www.w3.org/1999/xlink" width="500" zoomAndPan="magnify" viewBox="0 0 375 374.999991" height="500" preserveAspectRatio="xMidYMid meet" version="1.0"><defs><g/><clipPath id="a949816798"><path d="M 0.00390625 0.160156 L 374.996094 0.160156 L 374.996094 374.832031 L 0.00390625 374.832031 Z M 0.00390625 0.160156 " clip-rule="nonzero"/></clipPath></defs><g clip-path="url(#a949816798)"><path stroke-linecap="butt" transform="matrix(0.75, 0, 0, 0.75, 0.00533163, 0.158732)" fill="none" stroke-linejoin="miter" d="M -0.0019005 0.00189903 L 499.987716 0.00189903 L 499.987716 499.564432 L -0.0019005 499.564432 Z M -0.0019005 0.00189903 " stroke="#000000" stroke-width="8" stroke-opacity="1" stroke-miterlimit="4"/></g><g fill="#000000" fill-opacity="1"><g transform="translate(20.123492, 68.947596)"><g><path d="M 17.8125 0.609375 C 14.707031 0.609375 11.953125 -0.0664062 9.546875 -1.421875 C 7.140625 -2.785156 5.257812 -4.671875 3.90625 -7.078125 C 2.5625 -9.484375 1.890625 -12.257812 1.890625 -15.40625 C 1.890625 -18.539062 2.5625 -21.3125 3.90625 -23.71875 C 5.257812 -26.125 7.128906 -28.007812 9.515625 -29.375 C 11.910156 -30.738281 14.664062 -31.421875 17.78125 -31.421875 C 20.382812 -31.421875 22.769531 -30.921875 24.9375 -29.921875 C 27.113281 -28.921875 28.941406 -27.507812 30.421875 -25.6875 C 31.898438 -23.875 32.9375 -21.734375 33.53125 -19.265625 L 26.3125 -19.265625 C 25.726562 -20.972656 24.6875 -22.316406 23.1875 -23.296875 C 21.6875 -24.273438 19.957031 -24.765625 18 -24.765625 C 16.269531 -24.765625 14.722656 -24.367188 13.359375 -23.578125 C 11.992188 -22.785156 10.925781 -21.6875 10.15625 -20.28125 C 9.394531 -18.875 9.015625 -17.25 9.015625 -15.40625 C 9.015625 -13.550781 9.394531 -11.921875 10.15625 -10.515625 C 10.925781 -9.109375 11.984375 -8.007812 13.328125 -7.21875 C 14.679688 -6.425781 16.222656 -6.03125 17.953125 -6.03125 C 19.972656 -6.03125 21.742188 -6.550781 23.265625 -7.59375 C 24.796875 -8.632812 25.882812 -10.035156 26.53125 -11.796875 L 33.75 -11.796875 C 33.25 -9.296875 32.25 -7.113281 30.75 -5.25 C 29.257812 -3.394531 27.40625 -1.953125 25.1875 -0.921875 C 22.976562 0.0976562 20.519531 0.609375 17.8125 0.609375 Z M 17.8125 0.609375 "/></g></g></g><g fill="#000000" fill-opacity="1"><g transform="translate(62.225147, 68.947596)"><g><path d="M 0.390625 0 L 12.625 -30.796875 L 19.484375 -30.796875 L 31.71875 0 L 24.25 0 L 22.171875 -5.328125 L 9.9375 -5.328125 L 7.875 0 Z M 11.75 -10.828125 L 20.421875 -10.828125 L 16.0625 -22.09375 Z M 11.75 -10.828125 "/></g></g></g><g fill="#000000" fill-opacity="1"><g transform="translate(100.939397, 68.947596)"><g><path d="M 3.703125 0 L 3.703125 -30.796875 L 9.640625 -30.796875 L 20.59375 -14.828125 L 31.5 -30.796875 L 37.40625 -30.796875 L 37.40625 0 L 30.453125 0 L 30.453125 -18.53125 L 22.96875 -7.609375 L 18.125 -7.609375 L 10.640625 -18.5625 L 10.640625 0 Z M 3.703125 0 "/></g></g></g><g fill="#000000" fill-opacity="1"><g transform="translate(148.628058, 68.947596)"><g><path d="M 3.703125 0 L 3.703125 -30.796875 L 17.46875 -30.796875 C 20.601562 -30.796875 23.09375 -30.046875 24.9375 -28.546875 C 26.789062 -27.054688 27.71875 -25.050781 27.71875 -22.53125 C 27.71875 -21.09375 27.394531 -19.785156 26.75 -18.609375 C 26.101562 -17.441406 25.195312 -16.519531 24.03125 -15.84375 C 25.488281 -15.195312 26.617188 -14.242188 27.421875 -12.984375 C 28.234375 -11.722656 28.640625 -10.269531 28.640625 -8.625 C 28.640625 -6.894531 28.195312 -5.382812 27.3125 -4.09375 C 26.4375 -2.800781 25.210938 -1.796875 23.640625 -1.078125 C 22.078125 -0.359375 20.253906 0 18.171875 0 Z M 10.609375 -5.546875 L 17.109375 -5.546875 C 18.492188 -5.546875 19.566406 -5.867188 20.328125 -6.515625 C 21.085938 -7.160156 21.46875 -8.066406 21.46875 -9.234375 C 21.46875 -10.410156 21.085938 -11.320312 20.328125 -11.96875 C 19.566406 -12.613281 18.492188 -12.9375 17.109375 -12.9375 L 10.609375 -12.9375 Z M 10.609375 -18.265625 L 16.40625 -18.265625 C 17.757812 -18.265625 18.796875 -18.570312 19.515625 -19.1875 C 20.234375 -19.800781 20.59375 -20.664062 20.59375 -21.78125 C 20.59375 -22.894531 20.234375 -23.75 19.515625 -24.34375 C 18.796875 -24.945312 17.757812 -25.25 16.40625 -25.25 L 10.609375 -25.25 Z M 10.609375 -18.265625 "/></g></g></g><g fill="#000000" fill-opacity="1"><g transform="translate(185.538638, 68.947596)"><g><path d="M 3.703125 0 L 3.703125 -30.796875 L 16.859375 -30.796875 C 19.203125 -30.796875 21.238281 -30.367188 22.96875 -29.515625 C 24.695312 -28.671875 26.03125 -27.457031 26.96875 -25.875 C 27.90625 -24.289062 28.375 -22.398438 28.375 -20.203125 C 28.375 -17.941406 27.859375 -15.992188 26.828125 -14.359375 C 25.804688 -12.734375 24.375 -11.507812 22.53125 -10.6875 L 28.90625 0 L 20.8125 0 L 15.3125 -9.59375 L 10.6875 -9.59375 L 10.6875 0 Z M 10.609375 -15.484375 L 15.921875 -15.484375 C 17.660156 -15.484375 18.988281 -15.882812 19.90625 -16.6875 C 20.832031 -17.5 21.296875 -18.65625 21.296875 -20.15625 C 21.296875 -21.644531 20.832031 -22.789062 19.90625 -23.59375 C 18.988281 -24.40625 17.660156 -24.8125 15.921875 -24.8125 L 10.609375 -24.8125 Z M 10.609375 -15.484375 "/></g></g></g><g fill="#000000" fill-opacity="1"><g transform="translate(223.109097, 68.947596)"><g><path d="M 3.703125 0 L 3.703125 -30.796875 L 23.9375 -30.796875 L 23.9375 -24.90625 L 10.640625 -24.90625 L 10.640625 -18.53125 L 22.75 -18.53125 L 22.75 -12.671875 L 10.640625 -12.671875 L 10.640625 -5.9375 L 24.421875 -5.9375 L 24.421875 0 Z M 3.703125 0 "/></g></g></g><g fill="#000000" fill-opacity="1"><g transform="translate(256.368326, 68.947596)"><g><path d="M 3.703125 0 L 3.703125 -30.796875 L 9.640625 -30.796875 L 23.234375 -12.0625 L 23.234375 -30.796875 L 30.1875 -30.796875 L 30.1875 0 L 24.25 0 L 10.640625 -18.875 L 10.640625 0 Z M 3.703125 0 "/></g></g></g><g fill="#000000" fill-opacity="1"><g transform="translate(296.842254, 68.947596)"><g><path d="M 0.390625 0 L 12.625 -30.796875 L 19.484375 -30.796875 L 31.71875 0 L 24.25 0 L 22.171875 -5.328125 L 9.9375 -5.328125 L 7.875 0 Z M 11.75 -10.828125 L 20.421875 -10.828125 L 16.0625 -22.09375 Z M 11.75 -10.828125 "/></g></g></g><g fill="#000000" fill-opacity="1"><g transform="translate(20.123492, 130.447592)"><g><path d="M 17.8125 0.609375 C 14.707031 0.609375 11.953125 -0.0664062 9.546875 -1.421875 C 7.140625 -2.785156 5.257812 -4.671875 3.90625 -7.078125 C 2.5625 -9.484375 1.890625 -12.257812 1.890625 -15.40625 C 1.890625 -18.539062 2.5625 -21.3125 3.90625 -23.71875 C 5.257812 -26.125 7.128906 -28.007812 9.515625 -29.375 C 11.910156 -30.738281 14.664062 -31.421875 17.78125 -31.421875 C 20.382812 -31.421875 22.769531 -30.921875 24.9375 -29.921875 C 27.113281 -28.921875 28.941406 -27.507812 30.421875 -25.6875 C 31.898438 -23.875 32.9375 -21.734375 33.53125 -19.265625 L 26.3125 -19.265625 C 25.726562 -20.972656 24.6875 -22.316406 23.1875 -23.296875 C 21.6875 -24.273438 19.957031 -24.765625 18 -24.765625 C 16.269531 -24.765625 14.722656 -24.367188 13.359375 -23.578125 C 11.992188 -22.785156 10.925781 -21.6875 10.15625 -20.28125 C 9.394531 -18.875 9.015625 -17.25 9.015625 -15.40625 C 9.015625 -13.550781 9.394531 -11.921875 10.15625 -10.515625 C 10.925781 -9.109375 11.984375 -8.007812 13.328125 -7.21875 C 14.679688 -6.425781 16.222656 -6.03125 17.953125 -6.03125 C 19.972656 -6.03125 21.742188 -6.550781 23.265625 -7.59375 C 24.796875 -8.632812 25.882812 -10.035156 26.53125 -11.796875 L 33.75 -11.796875 C 33.25 -9.296875 32.25 -7.113281 30.75 -5.25 C 29.257812 -3.394531 27.40625 -1.953125 25.1875 -0.921875 C 22.976562 0.0976562 20.519531 0.609375 17.8125 0.609375 Z M 17.8125 0.609375 "/></g></g></g><g fill="#000000" fill-opacity="1"><g transform="translate(62.225147, 130.447592)"><g><path d="M 0.390625 0 L 12.625 -30.796875 L 19.484375 -30.796875 L 31.71875 0 L 24.25 0 L 22.171875 -5.328125 L 9.9375 -5.328125 L 7.875 0 Z M 11.75 -10.828125 L 20.421875 -10.828125 L 16.0625 -22.09375 Z M 11.75 -10.828125 "/></g></g></g><g fill="#000000" fill-opacity="1"><g transform="translate(100.939397, 130.447592)"><g><path d="M 3.703125 0 L 3.703125 -30.796875 L 15.75 -30.796875 C 18.238281 -30.796875 20.394531 -30.34375 22.21875 -29.4375 C 24.039062 -28.53125 25.457031 -27.238281 26.46875 -25.5625 C 27.476562 -23.894531 27.984375 -21.929688 27.984375 -19.671875 C 27.984375 -17.441406 27.476562 -15.488281 26.46875 -13.8125 C 25.457031 -12.144531 24.039062 -10.851562 22.21875 -9.9375 C 20.394531 -9.03125 18.238281 -8.578125 15.75 -8.578125 L 10.6875 -8.578125 L 10.6875 0 Z M 10.640625 -14.609375 L 15.1875 -14.609375 C 17 -14.609375 18.394531 -15.039062 19.375 -15.90625 C 20.363281 -16.769531 20.859375 -18.007812 20.859375 -19.625 C 20.859375 -21.238281 20.363281 -22.484375 19.375 -23.359375 C 18.394531 -24.242188 17 -24.6875 15.1875 -24.6875 L 10.640625 -24.6875 Z M 10.640625 -14.609375 "/></g></g></g><g fill="#000000" fill-opacity="1"><g transform="translate(136.794158, 130.447592)"><g><path d="M 3.703125 0 L 3.703125 -30.796875 L 10.6875 -30.796875 L 10.6875 0 Z M 3.703125 0 "/></g></g></g><g fill="#000000" fill-opacity="1"><g transform="translate(157.779576, 130.447592)"><g><path d="M 11.09375 0 L 11.09375 -24.25 L 1.3125 -24.25 L 1.3125 -30.796875 L 27.859375 -30.796875 L 27.859375 -24.25 L 18.078125 -24.25 L 18.078125 0 Z M 11.09375 0 "/></g></g></g><g fill="#000000" fill-opacity="1"><g transform="translate(193.546355, 130.447592)"><g><path d="M 0.390625 0 L 12.625 -30.796875 L 19.484375 -30.796875 L 31.71875 0 L 24.25 0 L 22.171875 -5.328125 L 9.9375 -5.328125 L 7.875 0 Z M 11.75 -10.828125 L 20.421875 -10.828125 L 16.0625 -22.09375 Z M 11.75 -10.828125 "/></g></g></g><g fill="#000000" fill-opacity="1"><g transform="translate(232.260593, 130.447592)"><g><path d="M 3.703125 0 L 3.703125 -30.796875 L 10.6875 -30.796875 L 10.6875 -6.5625 L 24.15625 -6.5625 L 24.15625 0 Z M 3.703125 0 "/></g></g></g></svg>